<mxfile host="app.diagrams.net" modified="2023-06-01T16:59:39.365Z" agent="Mozilla/5.0 (Windows NT 10.0; Win64; x64) AppleWebKit/537.36 (KHTML, like Gecko) Chrome/113.0.0.0 Safari/537.36" version="21.3.6" etag="Wey698c6hJIS6JeSG1Jn" type="github">
  <diagram name="PÃ¡gina-1" id="_DvlFkKq05ow9BnHqfPw">
    <mxGraphModel>
      <root>
        <mxCell id="0" />
        <mxCell id="1" parent="0" />
      </root>
    </mxGraphModel>
  </diagram>
</mxfile>
